HIERARCHY
ROOT Hips
{
	OFFSET -0.001795 -0.223333 0.028219
	CHANNELS 6 Xposition Yposition Zposition Zrotation Yrotation Xrotation 
	JOINT LeftUpLeg
	{
		OFFSET 0.069520 -0.091406 -0.006815
		CHANNELS 3 Zrotation Yrotation Xrotation
		JOINT LeftLeg
		{
			OFFSET 0.034277 -0.375199 -0.004496
			CHANNELS 3 Zrotation Yrotation Xrotation
			JOINT LeftFoot
			{
				OFFSET -0.013596 -0.397961 -0.043693
				CHANNELS 3 Zrotation Yrotation Xrotation
				JOINT LeftToe
				{
					OFFSET 0.026358 -0.055791 0.119288
					CHANNELS 3 Zrotation Yrotation Xrotation
					End Site
					{
						OFFSET 0.000000 0.000000 0.000000
					}
				}
			}
		}
	}
	JOINT RightUpLeg
	{
		OFFSET -0.067670 -0.090522 -0.004320
		CHANNELS 3 Zrotation Yrotation Xrotation
		JOINT RightLeg
		{
			OFFSET -0.038290 -0.382569 -0.008850
			CHANNELS 3 Zrotation Yrotation Xrotation
			JOINT RightFoot
			{
				OFFSET 0.015774 -0.398415 -0.042312
				CHANNELS 3 Zrotation Yrotation Xrotation
				JOINT RightToe
				{
					OFFSET -0.025372 -0.048144 0.123348
					CHANNELS 3 Zrotation Yrotation Xrotation
					End Site
					{
						OFFSET 0.000000 0.000000 0.000000
					}
				}
			}
		}
	}
	JOINT Spine
	{
		OFFSET -0.002533 0.108963 -0.026696
		CHANNELS 3 Zrotation Yrotation Xrotation
		JOINT Spine1
		{
			OFFSET 0.005487 0.135180 0.001092
			CHANNELS 3 Zrotation Yrotation Xrotation
			JOINT Spine2
			{
				OFFSET 0.001457 0.052922 0.025425
				CHANNELS 3 Zrotation Yrotation Xrotation
				JOINT Neck
				{
					OFFSET -0.002778 0.213870 -0.042857
					CHANNELS 3 Zrotation Yrotation Xrotation
					JOINT Head
					{
						OFFSET 0.005152 0.064970 0.051349
						CHANNELS 3 Zrotation Yrotation Xrotation
						End Site
						{
							OFFSET 0.000000 0.000000 0.000000
						}
					}
				}
				JOINT LeftShoulder
				{
					OFFSET 0.078845 0.121749 -0.034090
					CHANNELS 3 Zrotation Yrotation Xrotation
					JOINT LeftArm
					{
						OFFSET 0.090977 0.030469 -0.008868
						CHANNELS 3 Zrotation Yrotation Xrotation
						JOINT LeftForeArm
						{
							OFFSET 0.259612 -0.012772 -0.027456
							CHANNELS 3 Zrotation Yrotation Xrotation
							JOINT LeftHand
							{
								OFFSET 0.249234 0.008986 -0.001171
								CHANNELS 3 Zrotation Yrotation Xrotation
								End Site
								{
									OFFSET 0.000000 0.000000 0.000000
								}
							}
						}
					}
				}
				JOINT RightShoulder
				{
					OFFSET -0.081759 0.118833 -0.038615
					CHANNELS 3 Zrotation Yrotation Xrotation
					JOINT RightArm
					{
						OFFSET -0.096012 0.032551 -0.009143
						CHANNELS 3 Zrotation Yrotation Xrotation
						JOINT RightForeArm
						{
							OFFSET -0.253742 -0.013329 -0.021401
							CHANNELS 3 Zrotation Yrotation Xrotation
							JOINT RightHand
							{
								OFFSET -0.255298 0.007772 -0.005559
								CHANNELS 3 Zrotation Yrotation Xrotation
								End Site
								{
									OFFSET 0.000000 0.000000 0.000000
								}
							}
						}
					}
				}
			}
		}
	}
}
MOTION
Frames: 16
Frame Time: 0.050000
0.000000 0.981621 0.000000 -1.155608 0.514403 8.198555 1.421000 -0.163538 -1.527855 -1.055402 0.853168 -30.580627 98.737680 10.332728 138.655052 0.000000 0.000000 0.000000 -1.190653 0.488692 -4.891866 -0.622348 -1.313859 -29.164388 -58.257501 -19.737235 137.837040 0.000000 0.000000 0.000000 2.465748 0.378545 -7.546230 1.123979 1.256542 -53.719706 -1.029184 1.992528 55.544954 -0.790285 3.072596 -86.755941 0.000000 0.000000 0.000000 -28.327818 -1.249489 0.308677 -46.008781 -15.872133 -6.191104 -15.216638 27.017665 -4.150097 0.000000 0.000000 0.000000 25.713768 -0.683196 0.509008 51.834636 16.596513 -5.457684 10.794984 -32.879976 -2.786805 0.000000 0.000000 0.000000 
0.000647 0.979720 0.000230 -1.024525 -0.726829 9.281556 1.423649 -0.406710 -4.601967 -0.612269 0.932131 -27.300481 96.140442 9.508784 140.899311 0.000000 0.000000 0.000000 -1.584842 0.665681 -6.885387 -0.737545 -1.164075 -27.678568 -55.628441 -19.301919 137.548429 0.000000 0.000000 0.000000 1.771095 0.420837 -8.464187 2.429847 1.513607 -54.786962 -0.301712 3.443665 56.852470 -2.410067 3.074760 -86.994705 0.000000 0.000000 0.000000 -29.391298 -1.510928 0.161399 -45.282443 -16.991465 -5.743914 -14.980889 27.504042 -4.207819 0.000000 0.000000 0.000000 24.469592 -1.909339 -0.081329 53.968840 16.815719 -5.353866 10.072959 -32.277052 -2.459841 0.000000 0.000000 0.000000 
0.000985 0.980705 0.000862 -0.510795 -0.975956 8.524196 0.497687 -0.359646 -3.957366 -0.424888 0.972583 -27.287028 97.273326 9.708476 140.557317 0.000000 0.000000 0.000000 -1.652948 0.655305 -6.802617 -1.396982 -1.176669 -26.493692 -56.807053 -19.227231 137.284197 0.000000 0.000000 0.000000 1.975794 0.435337 -8.461881 -1.773318 1.387966 -56.597264 1.966017 -0.223752 60.143633 -9.927986 3.635383 -88.866431 0.000000 0.000000 0.000000 -29.031992 -1.157815 1.512894 -46.131355 -19.013417 -6.033580 -13.157357 27.599391 -3.480454 0.000000 0.000000 0.000000 24.239413 -0.128466 0.285867 52.503388 17.259394 -5.705817 9.576740 -32.054285 -2.451423 0.000000 0.000000 0.000000 
0.001140 0.980236 0.001234 -0.831123 -2.870459 8.549493 0.692151 -0.412577 -4.589357 0.022948 1.168166 -27.239155 99.508009 8.671944 142.299515 0.000000 0.000000 0.000000 -1.558245 0.743357 -7.730278 -0.246643 -0.862458 -25.564578 -59.666860 -18.878980 135.823315 0.000000 0.000000 0.000000 2.405213 0.522492 -9.035588 -0.858119 1.661025 -55.214949 2.239849 1.223806 58.805068 -7.729117 3.603936 -87.106927 0.000000 0.000000 0.000000 -29.613335 0.072962 0.548886 -46.508103 -18.605101 -5.963296 -11.691115 28.888075 -3.264275 0.000000 0.000000 0.000000 24.284266 -0.648283 -0.135863 52.845604 17.569587 -5.271706 9.501201 -32.455189 -2.494867 0.000000 0.000000 0.000000 
0.001243 0.978754 0.001857 -0.557680 -2.506639 8.082972 0.486208 -0.355141 -3.889531 -0.296097 1.071966 -26.666977 98.175407 9.216913 141.826214 0.000000 0.000000 0.000000 -1.610206 0.697124 -7.250056 -0.777863 -0.934992 -25.046033 -59.625625 -19.055767 135.802057 0.000000 0.000000 0.000000 2.207424 0.516945 -9.146297 -1.406495 1.518670 -52.890654 2.000097 -0.028661 57.405127 -9.785324 3.868598 -86.883436 0.000000 0.000000 0.000000 -30.243610 0.485560 0.599182 -46.053374 -17.909553 -6.160003 -11.039493 27.614225 -2.997342 0.000000 0.000000 0.000000 24.224281 -0.953311 -0.732738 52.282066 16.531535 -5.495316 8.824175 -29.797109 -2.372247 0.000000 0.000000 0.000000 
0.001339 0.977637 0.002374 -0.413452 -2.763730 8.282416 0.627881 -0.324594 -3.537061 -0.549726 1.062600 -26.717922 96.299957 9.328255 142.351386 0.000000 0.000000 0.000000 -1.886338 0.685266 -7.147934 -0.941082 -0.921990 -24.546662 -56.195086 -19.464798 134.545059 0.000000 0.000000 0.000000 2.105234 0.506606 -9.016064 -1.367382 1.568917 -53.461135 2.302889 -0.198873 57.980784 -12.305786 4.116823 -86.151036 0.000000 0.000000 0.000000 -30.188530 1.067725 0.313667 -46.145989 -17.247368 -6.480903 -10.729132 26.648198 -2.856601 0.000000 0.000000 0.000000 23.441823 -1.645263 -1.188967 52.510651 15.850358 -5.840948 9.538367 -27.639196 -2.498751 0.000000 0.000000 0.000000 
0.001463 0.976278 0.002676 -0.512863 -2.441143 8.407238 0.910902 -0.300943 -3.269171 -0.904472 1.022967 -27.310790 97.063610 9.326078 141.953934 0.000000 0.000000 0.000000 -1.691542 0.700054 -7.287146 -0.988003 -0.938278 -24.308458 -57.426131 -19.680056 134.481007 0.000000 0.000000 0.000000 2.347851 0.510491 -9.011462 -1.380948 1.544811 -53.859726 1.731798 -0.466320 58.766856 -11.899770 4.040299 -87.263699 0.000000 0.000000 0.000000 -30.349216 1.033405 0.467611 -45.832115 -16.892975 -6.757204 -11.328440 27.003024 -3.009654 0.000000 0.000000 0.000000 23.255670 -1.911595 -1.345987 52.386167 15.717236 -6.041903 9.744553 -27.532777 -2.548973 0.000000 0.000000 0.000000 
0.001664 0.975764 0.002845 -0.686597 -2.414527 8.605504 1.277212 -0.283029 -3.051422 -1.276336 0.986121 -27.588722 96.805635 9.493516 141.833430 0.000000 0.000000 0.000000 -1.710209 0.705218 -7.340556 -0.721199 -0.893674 -23.845601 -55.895032 -20.158987 133.363830 0.000000 0.000000 0.000000 2.820368 0.566665 -9.523489 -1.691053 1.518025 -53.444150 1.757917 -0.378800 59.028393 -10.602361 3.927069 -87.488422 0.000000 0.000000 0.000000 -30.451148 0.815022 0.611278 -45.537935 -16.666457 -6.873982 -12.278675 26.944455 -3.233587 0.000000 0.000000 0.000000 23.439878 -2.146606 -1.456055 51.845074 15.454964 -6.211148 10.726936 -27.343536 -2.799220 0.000000 0.000000 0.000000 
0.001887 0.975657 0.002916 -0.705291 -2.183397 8.855138 1.444670 -0.265004 -2.807371 -1.502885 0.968446 -28.359589 96.917157 9.500179 141.656852 0.000000 0.000000 0.000000 -1.875952 0.705484 -7.368180 -0.573649 -0.902881 -24.162349 -55.200231 -20.180521 133.586109 0.000000 0.000000 0.000000 2.822565 0.581379 -9.817471 -1.740406 1.504976 -54.082491 1.382414 -0.799545 60.079030 -10.393393 3.871898 -89.007192 0.000000 0.000000 0.000000 -30.980436 0.908870 0.756741 -44.951800 -16.951587 -6.974144 -12.863227 27.942908 -3.436349 0.000000 0.000000 0.000000 23.428633 -1.880728 -1.324051 51.404968 15.549687 -6.344963 11.382594 -27.871285 -3.001002 0.000000 0.000000 0.000000 
0.002100 0.975404 0.003040 -0.684472 -2.587995 8.963206 1.577975 -0.247168 -2.573478 -1.554147 0.998825 -28.442509 95.566684 9.469484 142.291997 0.000000 0.000000 0.000000 -2.064955 0.685852 -7.150205 -0.302389 -0.857205 -24.462674 -54.305410 -20.319673 132.718041 0.000000 0.000000 0.000000 2.998973 0.631596 -10.260190 -1.760991 1.538746 -53.812711 1.404461 -0.540809 60.525963 -9.106592 3.792908 -89.397457 0.000000 0.000000 0.000000 -30.989291 1.096035 0.685351 -44.770969 -16.946538 -7.038410 -13.517180 27.853218 -3.580821 0.000000 0.000000 0.000000 23.460637 -2.007438 -1.391815 50.946024 15.850421 -6.281370 11.918509 -28.303490 -3.172320 0.000000 0.000000 0.000000 
0.002300 0.975346 0.003280 -0.673360 -2.683587 9.048288 1.652097 -0.180548 -1.700074 -1.826524 1.000697 -29.259805 94.814491 9.861735 142.104377 0.000000 0.000000 0.000000 -2.136666 0.651318 -6.739312 -0.341118 -0.877496 -25.188210 -53.190281 -20.310113 132.532733 0.000000 0.000000 0.000000 2.997348 0.644436 -10.411066 -1.650187 1.568892 -54.256737 1.194120 -0.520569 61.181028 -8.907327 3.764710 -90.192716 0.000000 0.000000 0.000000 -31.239669 1.016576 0.830316 -44.207753 -16.791302 -7.185601 -14.661293 28.266406 -3.901930 0.000000 0.000000 0.000000 23.379893 -1.944100 -1.343526 50.705726 15.717942 -6.440872 12.863604 -28.487466 -3.436962 0.000000 0.000000 0.000000 
0.002463 0.974431 0.003665 -0.765602 -3.195957 9.321794 1.688427 -0.119737 -0.904525 -1.863506 1.071709 -29.980531 93.937699 10.295636 142.174864 0.000000 0.000000 0.000000 -2.241537 0.602245 -6.121491 -0.136387 -0.841791 -26.123703 -50.836208 -20.547442 131.056608 0.000000 0.000000 0.000000 3.269395 0.718753 -11.039390 -1.467645 1.642586 -54.232492 1.006510 0.166706 61.546662 -7.237478 3.660475 -90.186694 0.000000 0.000000 0.000000 -30.987469 1.223486 0.627833 -44.062203 -16.540804 -7.298244 -15.288927 28.073329 -4.049525 0.000000 0.000000 0.000000 23.927795 -2.005668 -1.333347 50.333678 15.619107 -6.539400 13.045169 -28.407962 -3.473308 0.000000 0.000000 0.000000 
0.002494 0.973579 0.004097 -0.829790 -3.711562 9.551249 1.741237 -0.047992 0.029127 -1.799304 1.186856 -31.228657 93.365198 10.417616 142.519453 0.000000 0.000000 0.000000 -2.310120 0.531064 -5.219594 -0.072863 -0.833197 -27.943334 -48.910241 -20.416462 130.494344 0.000000 0.000000 0.000000 3.257742 0.748054 -11.264432 -1.585876 1.736266 -55.298710 1.358349 0.171276 62.964828 -7.000910 3.622119 -91.430627 0.000000 0.000000 0.000000 -31.075133 1.021349 1.007197 -43.795572 -16.813020 -7.473020 -15.499598 28.668720 -4.113542 0.000000 0.000000 0.000000 23.713023 -1.913880 -1.246769 50.237431 15.973930 -6.649615 14.087378 -29.412919 -3.805645 0.000000 0.000000 0.000000 
0.002418 0.972161 0.004341 -1.033574 -4.160629 9.796521 2.010966 0.028623 1.108717 -1.965864 1.271442 -32.541005 92.908564 10.694239 142.602331 0.000000 0.000000 0.000000 -2.298993 0.467807 -4.415795 0.350953 -0.750059 -29.420474 -48.067051 -20.603901 129.296968 0.000000 0.000000 0.000000 3.414734 0.798419 -11.626134 -1.314335 1.840765 -55.791349 1.216963 0.612755 63.547148 -5.990804 3.573252 -91.633885 0.000000 0.000000 0.000000 -30.659071 1.026001 1.023550 -43.771320 -16.356085 -7.682714 -16.039084 28.602959 -4.237379 0.000000 0.000000 0.000000 24.071004 -1.872057 -1.208220 49.865071 15.672927 -6.828690 14.179634 -29.788441 -3.871310 0.000000 0.000000 0.000000 
0.002334 0.970010 0.004297 -1.290020 -4.420823 10.168103 2.381854 0.091020 2.116271 -2.299636 1.305851 -33.767996 92.460100 11.156392 142.347707 0.000000 0.000000 0.000000 -2.265726 0.403375 -3.597633 0.541752 -0.704872 -30.704919 -45.064061 -20.897672 127.557600 0.000000 0.000000 0.000000 3.395577 0.826366 -11.907166 -1.252111 1.917503 -56.556489 1.340409 0.417548 64.416161 -6.382298 3.611710 -92.253409 0.000000 0.000000 0.000000 -30.760763 0.836476 1.371260 -43.662329 -16.386272 -7.849039 -15.933689 29.087792 -4.217771 0.000000 0.000000 0.000000 23.706780 -1.527688 -1.015680 49.839113 15.576090 -7.000870 15.042375 -30.808734 -4.193625 0.000000 0.000000 0.000000 
0.002249 0.967204 0.004043 -1.638002 -5.120329 10.301559 2.972134 0.152965 3.250279 -2.413980 1.431556 -34.904678 91.170250 11.125832 143.175032 0.000000 0.000000 0.000000 -2.232632 0.355061 -2.988937 1.219982 -0.507173 -31.509693 -44.496219 -21.141996 125.796695 0.000000 0.000000 0.000000 3.574945 0.875763 -12.091725 -1.020333 2.003428 -56.099056 1.568880 0.940708 63.951143 -5.224596 3.582516 -91.410117 0.000000 0.000000 0.000000 -30.301814 0.367560 1.653705 -44.138116 -16.116632 -7.846676 -15.688874 29.426811 -4.166324 0.000000 0.000000 0.000000 23.772421 -1.343240 -0.939590 49.299876 15.011996 -7.053682 16.555730 -30.985275 -4.683823 0.000000 0.000000 0.000000 
